<?xml version="1.0" encoding="UTF-8"?>
<!DOCTYPE svg PUBLIC "-//W3C//DTD SVG 1.1//EN" "http://www.w3.org/Graphics/SVG/1.1/DTD/svg11.dtd">
<svg version="1.2" width="279.4mm" height="279.4mm" viewBox="0 0 27940 27940" preserveAspectRatio="xMidYMid" fill-rule="evenodd" stroke-width="28.222" stroke-linejoin="round" xmlns="http://www.w3.org/2000/svg" xmlns:ooo="http://xml.openoffice.org/svg/export" xmlns:xlink="http://www.w3.org/1999/xlink" xmlns:presentation="http://sun.com/xmlns/staroffice/presentation" xmlns:smil="http://www.w3.org/2001/SMIL20/" xmlns:anim="urn:oasis:names:tc:opendocument:xmlns:animation:1.0" xmlns:svg="urn:oasis:names:tc:opendocument:xmlns:svg-compatible:1.0" xml:space="preserve">
 <defs class="ClipPathGroup">
  <clipPath id="presentation_clip_path" clipPathUnits="userSpaceOnUse">
   <rect x="0" y="0" width="27940" height="27940"/>
  </clipPath>
  <clipPath id="presentation_clip_path_shrink" clipPathUnits="userSpaceOnUse">
   <rect x="27" y="27" width="27885" height="27885"/>
  </clipPath>
 </defs>
 <defs class="TextShapeIndex">
  <g ooo:slide="id1" ooo:id-list="id3 id4 id5 id6 id7 id8 id9 id10 id11 id12 id13 id14 id15 id16 id17 id18 id19 id20 id21 id22 id23 id24 id25 id26 id27 id28 id29 id30 id31 id32 id33"/>
 </defs>
 <defs class="EmbeddedBulletChars">
  <g id="bullet-char-template-57356" transform="scale(0.00048828125,-0.00048828125)">
   <path d="M 580,1141 L 1163,571 580,0 -4,571 580,1141 Z"/>
  </g>
  <g id="bullet-char-template-57354" transform="scale(0.00048828125,-0.00048828125)">
   <path d="M 8,1128 L 1137,1128 1137,0 8,0 8,1128 Z"/>
  </g>
  <g id="bullet-char-template-10146" transform="scale(0.00048828125,-0.00048828125)">
   <path d="M 174,0 L 602,739 174,1481 1456,739 174,0 Z M 1358,739 L 309,1346 659,739 1358,739 Z"/>
  </g>
  <g id="bullet-char-template-10132" transform="scale(0.00048828125,-0.00048828125)">
   <path d="M 2015,739 L 1276,0 717,0 1260,543 174,543 174,936 1260,936 717,1481 1274,1481 2015,739 Z"/>
  </g>
  <g id="bullet-char-template-10007" transform="scale(0.00048828125,-0.00048828125)">
   <path d="M 0,-2 C -7,14 -16,27 -25,37 L 356,567 C 262,823 215,952 215,954 215,979 228,992 255,992 264,992 276,990 289,987 310,991 331,999 354,1012 L 381,999 492,748 772,1049 836,1024 860,1049 C 881,1039 901,1025 922,1006 886,937 835,863 770,784 769,783 710,716 594,584 L 774,223 C 774,196 753,168 711,139 L 727,119 C 717,90 699,76 672,76 641,76 570,178 457,381 L 164,-76 C 142,-110 111,-127 72,-127 30,-127 9,-110 8,-76 1,-67 -2,-52 -2,-32 -2,-23 -1,-13 0,-2 Z"/>
  </g>
  <g id="bullet-char-template-10004" transform="scale(0.00048828125,-0.00048828125)">
   <path d="M 285,-33 C 182,-33 111,30 74,156 52,228 41,333 41,471 41,549 55,616 82,672 116,743 169,778 240,778 293,778 328,747 346,684 L 369,508 C 377,444 397,411 428,410 L 1163,1116 C 1174,1127 1196,1133 1229,1133 1271,1133 1292,1118 1292,1087 L 1292,965 C 1292,929 1282,901 1262,881 L 442,47 C 390,-6 338,-33 285,-33 Z"/>
  </g>
  <g id="bullet-char-template-9679" transform="scale(0.00048828125,-0.00048828125)">
   <path d="M 813,0 C 632,0 489,54 383,161 276,268 223,411 223,592 223,773 276,916 383,1023 489,1130 632,1184 813,1184 992,1184 1136,1130 1245,1023 1353,916 1407,772 1407,592 1407,412 1353,268 1245,161 1136,54 992,0 813,0 Z"/>
  </g>
  <g id="bullet-char-template-8226" transform="scale(0.00048828125,-0.00048828125)">
   <path d="M 346,457 C 273,457 209,483 155,535 101,586 74,649 74,723 74,796 101,859 155,911 209,963 273,989 346,989 419,989 480,963 531,910 582,859 608,796 608,723 608,648 583,586 532,535 482,483 420,457 346,457 Z"/>
  </g>
  <g id="bullet-char-template-8211" transform="scale(0.00048828125,-0.00048828125)">
   <path d="M -4,459 L 1135,459 1135,606 -4,606 -4,459 Z"/>
  </g>
  <g id="bullet-char-template-61548" transform="scale(0.00048828125,-0.00048828125)">
   <path d="M 173,740 C 173,903 231,1043 346,1159 462,1274 601,1332 765,1332 928,1332 1067,1274 1183,1159 1299,1043 1357,903 1357,740 1357,577 1299,437 1183,322 1067,206 928,148 765,148 601,148 462,206 346,322 231,437 173,577 173,740 Z"/>
  </g>
 </defs>
 <g>
  <g id="id2" class="Master_Slide">
   <g id="bg-id2" class="Background"/>
   <g id="bo-id2" class="BackgroundObjects"/>
  </g>
 </g>
 <g class="SlideGroup">
  <g>
   <g id="container-id1">
    <g id="id1" class="Slide" clip-path="url(#presentation_clip_path)">
     <g class="Page">
      <g class="com.sun.star.drawing.ConnectorShape">
       <g id="id3">
        <rect class="BoundingBox" stroke="none" fill="none" x="16726" y="4102" width="1737" height="7448"/>
        <path fill="none" stroke="rgb(0,123,255)" stroke-width="106" stroke-linejoin="round" d="M 16779,11496 L 18409,4155"/>
       </g>
      </g>
      <g class="com.sun.star.drawing.ConnectorShape">
       <g id="id4">
        <rect class="BoundingBox" stroke="none" fill="none" x="7459" y="3380" width="12017" height="21043"/>
        <path fill="none" stroke="rgb(0,123,255)" stroke-width="106" stroke-linejoin="round" d="M 7512,3433 L 19422,24369"/>
       </g>
      </g>
      <g class="com.sun.star.drawing.ConnectorShape">
       <g id="id5">
        <rect class="BoundingBox" stroke="none" fill="none" x="12445" y="4102" width="6018" height="2665"/>
        <path fill="none" stroke="rgb(0,123,255)" stroke-width="106" stroke-linejoin="round" d="M 12498,6713 L 18409,4155"/>
       </g>
      </g>
      <g class="com.sun.star.drawing.ConnectorShape">
       <g id="id6">
        <rect class="BoundingBox" stroke="none" fill="none" x="12445" y="6660" width="9507" height="9118"/>
        <path fill="none" stroke="rgb(0,123,255)" stroke-width="106" stroke-linejoin="round" d="M 12498,6713 L 21898,15724"/>
       </g>
      </g>
      <g class="com.sun.star.drawing.ConnectorShape">
       <g id="id7">
        <rect class="BoundingBox" stroke="none" fill="none" x="3062" y="3380" width="4504" height="5932"/>
        <path fill="none" stroke="rgb(0,123,255)" stroke-width="106" stroke-linejoin="round" d="M 3115,9258 L 7512,3433"/>
       </g>
      </g>
      <g class="com.sun.star.drawing.ConnectorShape">
       <g id="id8">
        <rect class="BoundingBox" stroke="none" fill="none" x="3062" y="6660" width="9490" height="2652"/>
        <path fill="none" stroke="rgb(0,123,255)" stroke-width="106" stroke-linejoin="round" d="M 3115,9258 L 12498,6713"/>
       </g>
      </g>
      <g class="com.sun.star.drawing.CustomShape">
       <g id="id9">
        <rect class="BoundingBox" stroke="none" fill="none" x="2274" y="8416" width="1696" height="1696"/>
        <path fill="rgb(0,0,0)" stroke="none" d="M 3916,9263 C 3916,9402 3879,9539 3810,9660 3740,9781 3640,9881 3519,9951 3398,10020 3261,10057 3122,10057 2982,10057 2845,10020 2724,9951 2603,9881 2503,9781 2433,9660 2364,9539 2327,9402 2327,9263 2327,9124 2364,8987 2433,8866 2503,8745 2603,8645 2724,8575 2845,8506 2982,8469 3121,8469 3261,8469 3398,8506 3519,8575 3640,8645 3740,8745 3810,8866 3879,8987 3916,9124 3916,9263 L 3916,9263 Z"/>
        <path fill="none" stroke="rgb(0,123,255)" stroke-width="106" stroke-linejoin="round" d="M 3916,9263 C 3916,9402 3879,9539 3810,9660 3740,9781 3640,9881 3519,9951 3398,10020 3261,10057 3122,10057 2982,10057 2845,10020 2724,9951 2603,9881 2503,9781 2433,9660 2364,9539 2327,9402 2327,9263 2327,9124 2364,8987 2433,8866 2503,8745 2603,8645 2724,8575 2845,8506 2982,8469 3121,8469 3261,8469 3398,8506 3519,8575 3640,8645 3740,8745 3810,8866 3879,8987 3916,9124 3916,9263 Z"/>
       </g>
      </g>
      <g class="com.sun.star.drawing.CustomShape">
       <g id="id10">
        <rect class="BoundingBox" stroke="none" fill="none" x="6665" y="2581" width="1696" height="1696"/>
        <path fill="rgb(0,0,0)" stroke="none" d="M 8307,3428 C 8307,3567 8270,3704 8201,3825 8131,3946 8031,4046 7910,4116 7789,4185 7652,4222 7513,4222 7373,4222 7236,4185 7115,4116 6994,4046 6894,3946 6824,3825 6755,3704 6718,3567 6718,3428 6718,3289 6755,3152 6824,3031 6894,2910 6994,2810 7115,2740 7236,2671 7373,2634 7513,2634 7652,2634 7789,2671 7910,2740 8031,2810 8131,2910 8201,3031 8270,3152 8307,3289 8307,3428 L 8307,3428 Z"/>
        <path fill="none" stroke="rgb(0,123,255)" stroke-width="106" stroke-linejoin="round" d="M 8307,3428 C 8307,3567 8270,3704 8201,3825 8131,3946 8031,4046 7910,4116 7789,4185 7652,4222 7513,4222 7373,4222 7236,4185 7115,4116 6994,4046 6894,3946 6824,3825 6755,3704 6718,3567 6718,3428 6718,3289 6755,3152 6824,3031 6894,2910 6994,2810 7115,2740 7236,2671 7373,2634 7513,2634 7652,2634 7789,2671 7910,2740 8031,2810 8131,2910 8201,3031 8270,3152 8307,3289 8307,3428 L 8307,3428 Z"/>
       </g>
      </g>
      <g class="com.sun.star.drawing.CustomShape">
       <g id="id11">
        <rect class="BoundingBox" stroke="none" fill="none" x="11651" y="5861" width="1696" height="1695"/>
        <path fill="rgb(0,0,0)" stroke="none" d="M 13293,6708 C 13293,6847 13256,6984 13187,7105 13117,7226 13017,7326 12896,7396 12775,7465 12638,7502 12499,7502 12359,7502 12222,7465 12101,7396 11980,7326 11880,7226 11810,7105 11741,6984 11704,6847 11704,6708 11704,6569 11741,6432 11810,6311 11880,6190 11980,6090 12101,6020 12222,5951 12359,5914 12499,5914 12638,5914 12775,5951 12896,6020 13017,6090 13117,6190 13187,6311 13256,6432 13293,6569 13293,6708 L 13293,6708 Z"/>
        <path fill="none" stroke="rgb(0,123,255)" stroke-width="106" stroke-linejoin="round" d="M 13293,6708 C 13293,6847 13256,6984 13187,7105 13117,7226 13017,7326 12896,7396 12775,7465 12638,7502 12499,7502 12359,7502 12222,7465 12101,7396 11980,7326 11880,7226 11810,7105 11741,6984 11704,6847 11704,6708 11704,6569 11741,6432 11810,6311 11880,6190 11980,6090 12101,6020 12222,5951 12359,5914 12499,5914 12638,5914 12775,5951 12896,6020 13017,6090 13117,6190 13187,6311 13256,6432 13293,6569 13293,6708 L 13293,6708 Z"/>
       </g>
      </g>
      <g class="com.sun.star.drawing.ConnectorShape">
       <g id="id12">
        <rect class="BoundingBox" stroke="none" fill="none" x="19369" y="9943" width="5860" height="14480"/>
        <path fill="none" stroke="rgb(0,123,255)" stroke-width="106" stroke-linejoin="round" d="M 19422,24369 L 25175,9996"/>
       </g>
      </g>
      <g class="com.sun.star.drawing.CustomShape">
       <g id="id13">
        <rect class="BoundingBox" stroke="none" fill="none" x="24328" y="9144" width="1696" height="1695"/>
        <path fill="rgb(0,0,0)" stroke="none" d="M 25970,9991 C 25970,10130 25933,10267 25864,10388 25794,10509 25694,10609 25573,10679 25452,10748 25315,10785 25176,10785 25036,10785 24899,10748 24778,10679 24657,10609 24557,10509 24487,10388 24418,10267 24381,10130 24381,9991 24381,9852 24418,9715 24487,9594 24557,9473 24657,9373 24778,9303 24899,9234 25036,9197 25176,9197 25315,9197 25452,9234 25573,9303 25694,9373 25794,9473 25864,9594 25933,9715 25970,9852 25970,9991 L 25970,9991 Z"/>
        <path fill="none" stroke="rgb(0,123,255)" stroke-width="106" stroke-linejoin="round" d="M 25970,9991 C 25970,10130 25933,10267 25864,10388 25794,10509 25694,10609 25573,10679 25452,10748 25315,10785 25176,10785 25036,10785 24899,10748 24778,10679 24657,10609 24557,10509 24487,10388 24418,10267 24381,10130 24381,9991 24381,9852 24418,9715 24487,9594 24557,9473 24657,9373 24778,9303 24899,9234 25036,9197 25176,9197 25315,9197 25452,9234 25573,9303 25694,9373 25794,9473 25864,9594 25933,9715 25970,9852 25970,9991 Z"/>
       </g>
      </g>
      <g class="com.sun.star.drawing.CustomShape">
       <g id="id14">
        <rect class="BoundingBox" stroke="none" fill="none" x="17562" y="3303" width="1696" height="1695"/>
        <path fill="rgb(0,0,0)" stroke="none" d="M 19204,4150 C 19204,4289 19167,4426 19098,4547 19028,4668 18928,4768 18807,4838 18686,4907 18549,4944 18410,4944 18270,4944 18133,4907 18012,4838 17891,4768 17791,4668 17721,4547 17652,4426 17615,4289 17615,4150 17615,4011 17652,3874 17721,3753 17791,3632 17891,3532 18012,3462 18133,3393 18270,3356 18410,3356 18549,3356 18686,3393 18807,3462 18928,3532 19028,3632 19098,3753 19167,3874 19204,4011 19204,4150 L 19204,4150 Z"/>
        <path fill="none" stroke="rgb(0,123,255)" stroke-width="106" stroke-linejoin="round" d="M 19204,4150 C 19204,4289 19167,4426 19098,4547 19028,4668 18928,4768 18807,4838 18686,4907 18549,4944 18410,4944 18270,4944 18133,4907 18012,4838 17891,4768 17791,4668 17721,4547 17652,4426 17615,4289 17615,4150 17615,4011 17652,3874 17721,3753 17791,3632 17891,3532 18012,3462 18133,3393 18270,3356 18410,3356 18549,3356 18686,3393 18807,3462 18928,3532 19028,3632 19098,3753 19167,3874 19204,4011 19204,4150 L 19204,4150 Z"/>
       </g>
      </g>
      <g class="com.sun.star.drawing.ConnectorShape">
       <g id="id15">
        <rect class="BoundingBox" stroke="none" fill="none" x="10213" y="17373" width="9263" height="7050"/>
        <path fill="none" stroke="rgb(0,123,255)" stroke-width="106" stroke-linejoin="round" d="M 19422,24369 L 10266,17426"/>
       </g>
      </g>
      <g class="com.sun.star.drawing.CustomShape">
       <g id="id16">
        <rect class="BoundingBox" stroke="none" fill="none" x="9419" y="16574" width="1696" height="1695"/>
        <path fill="rgb(0,0,0)" stroke="none" d="M 11061,17421 C 11061,17560 11024,17697 10955,17818 10885,17939 10785,18039 10664,18109 10543,18178 10406,18215 10267,18215 10127,18215 9990,18178 9869,18109 9748,18039 9648,17939 9578,17818 9509,17697 9472,17560 9472,17421 9472,17282 9509,17145 9578,17024 9648,16903 9748,16803 9869,16733 9990,16664 10127,16627 10267,16627 10406,16627 10543,16664 10664,16733 10785,16803 10885,16903 10955,17024 11024,17145 11061,17282 11061,17421 L 11061,17421 Z"/>
        <path fill="none" stroke="rgb(0,123,255)" stroke-width="106" stroke-linejoin="round" d="M 11061,17421 C 11061,17560 11024,17697 10955,17818 10885,17939 10785,18039 10664,18109 10543,18178 10406,18215 10267,18215 10127,18215 9990,18178 9869,18109 9748,18039 9648,17939 9578,17818 9509,17697 9472,17560 9472,17421 9472,17282 9509,17145 9578,17024 9648,16903 9748,16803 9869,16733 9990,16664 10127,16627 10267,16627 10406,16627 10543,16664 10664,16733 10785,16803 10885,16903 10955,17024 11024,17145 11061,17282 11061,17421 Z"/>
       </g>
      </g>
      <g class="com.sun.star.drawing.CustomShape">
       <g id="id17">
        <rect class="BoundingBox" stroke="none" fill="none" x="21051" y="14872" width="1696" height="1696"/>
        <path fill="rgb(0,0,0)" stroke="none" d="M 22693,15719 C 22693,15858 22656,15995 22587,16116 22517,16237 22417,16337 22296,16407 22175,16476 22038,16513 21899,16513 21759,16513 21622,16476 21501,16407 21380,16337 21280,16237 21210,16116 21141,15995 21104,15858 21104,15719 21104,15580 21141,15443 21210,15322 21280,15201 21380,15101 21501,15031 21622,14962 21759,14925 21899,14925 22038,14925 22175,14962 22296,15031 22417,15101 22517,15201 22587,15322 22656,15443 22693,15580 22693,15719 L 22693,15719 Z"/>
        <path fill="none" stroke="rgb(0,123,255)" stroke-width="106" stroke-linejoin="round" d="M 22693,15719 C 22693,15858 22656,15995 22587,16116 22517,16237 22417,16337 22296,16407 22175,16476 22038,16513 21899,16513 21759,16513 21622,16476 21501,16407 21380,16337 21280,16237 21210,16116 21141,15995 21104,15858 21104,15719 21104,15580 21141,15443 21210,15322 21280,15201 21380,15101 21501,15031 21622,14962 21759,14925 21899,14925 22038,14925 22175,14962 22296,15031 22417,15101 22517,15201 22587,15322 22656,15443 22693,15580 22693,15719 Z"/>
       </g>
      </g>
      <g class="com.sun.star.drawing.CustomShape">
       <g id="id18">
        <rect class="BoundingBox" stroke="none" fill="none" x="18575" y="23517" width="1696" height="1696"/>
        <path fill="rgb(0,0,0)" stroke="none" d="M 20217,24364 C 20217,24503 20180,24640 20111,24761 20041,24882 19941,24982 19820,25052 19699,25121 19562,25158 19423,25158 19283,25158 19146,25121 19025,25052 18904,24982 18804,24882 18734,24761 18665,24640 18628,24503 18628,24364 18628,24225 18665,24088 18734,23967 18804,23846 18904,23746 19025,23676 19146,23607 19283,23570 19423,23570 19562,23570 19699,23607 19820,23676 19941,23746 20041,23846 20111,23967 20180,24088 20217,24225 20217,24364 L 20217,24364 Z"/>
        <path fill="none" stroke="rgb(0,123,255)" stroke-width="106" stroke-linejoin="round" d="M 20217,24364 C 20217,24503 20180,24640 20111,24761 20041,24882 19941,24982 19820,25052 19699,25121 19562,25158 19423,25158 19283,25158 19146,25121 19025,25052 18904,24982 18804,24882 18734,24761 18665,24640 18628,24503 18628,24364 18628,24225 18665,24088 18734,23967 18804,23846 18904,23746 19025,23676 19146,23607 19283,23570 19423,23570 19562,23570 19699,23607 19820,23676 19941,23746 20041,23846 20111,23967 20180,24088 20217,24225 20217,24364 Z"/>
       </g>
      </g>
      <g class="com.sun.star.drawing.ConnectorShape">
       <g id="id19">
        <rect class="BoundingBox" stroke="none" fill="none" x="5829" y="10721" width="1985" height="12400"/>
        <path fill="none" stroke="rgb(0,123,255)" stroke-width="106" stroke-linejoin="round" d="M 5882,10774 L 7760,23067"/>
       </g>
      </g>
      <g class="com.sun.star.drawing.ConnectorShape">
       <g id="id20">
        <rect class="BoundingBox" stroke="none" fill="none" x="10815" y="11443" width="6018" height="2665"/>
        <path fill="none" stroke="rgb(0,123,255)" stroke-width="106" stroke-linejoin="round" d="M 10868,14054 L 16779,11496"/>
       </g>
      </g>
      <g class="com.sun.star.drawing.ConnectorShape">
       <g id="id21">
        <rect class="BoundingBox" stroke="none" fill="none" x="10815" y="14001" width="13785" height="6693"/>
        <path fill="none" stroke="rgb(0,123,255)" stroke-width="106" stroke-linejoin="round" d="M 10868,14054 L 24546,20640"/>
       </g>
      </g>
      <g class="com.sun.star.drawing.ConnectorShape">
       <g id="id22">
        <rect class="BoundingBox" stroke="none" fill="none" x="2689" y="10721" width="3247" height="9614"/>
        <path fill="none" stroke="rgb(0,123,255)" stroke-width="106" stroke-linejoin="round" d="M 2742,20281 L 5882,10774"/>
       </g>
      </g>
      <g class="com.sun.star.drawing.ConnectorShape">
       <g id="id23">
        <rect class="BoundingBox" stroke="none" fill="none" x="2689" y="14001" width="8233" height="6334"/>
        <path fill="none" stroke="rgb(0,123,255)" stroke-width="106" stroke-linejoin="round" d="M 2742,20281 L 10868,14054"/>
       </g>
      </g>
      <g class="com.sun.star.drawing.CustomShape">
       <g id="id24">
        <rect class="BoundingBox" stroke="none" fill="none" x="1901" y="19439" width="1696" height="1695"/>
        <path fill="rgb(0,0,0)" stroke="none" d="M 3543,20286 C 3543,20425 3506,20562 3437,20683 3367,20804 3267,20904 3146,20974 3025,21043 2888,21080 2749,21080 2609,21080 2472,21043 2351,20974 2230,20904 2130,20804 2060,20683 1991,20562 1954,20425 1954,20286 1954,20147 1991,20010 2060,19889 2130,19768 2230,19668 2351,19598 2472,19529 2609,19492 2748,19492 2888,19492 3025,19529 3146,19598 3267,19668 3367,19768 3437,19889 3506,20010 3543,20147 3543,20286 L 3543,20286 Z"/>
        <path fill="none" stroke="rgb(0,123,255)" stroke-width="106" stroke-linejoin="round" d="M 3543,20286 C 3543,20425 3506,20562 3437,20683 3367,20804 3267,20904 3146,20974 3025,21043 2888,21080 2749,21080 2609,21080 2472,21043 2351,20974 2230,20904 2130,20804 2060,20683 1991,20562 1954,20425 1954,20286 1954,20147 1991,20010 2060,19889 2130,19768 2230,19668 2351,19598 2472,19529 2609,19492 2748,19492 2888,19492 3025,19529 3146,19598 3267,19668 3367,19768 3437,19889 3506,20010 3543,20147 3543,20286 Z"/>
       </g>
      </g>
      <g class="com.sun.star.drawing.CustomShape">
       <g id="id25">
        <rect class="BoundingBox" stroke="none" fill="none" x="5035" y="9922" width="1696" height="1696"/>
        <path fill="rgb(0,0,0)" stroke="none" d="M 6677,10769 C 6677,10908 6640,11045 6571,11166 6501,11287 6401,11387 6280,11457 6159,11526 6022,11563 5883,11563 5743,11563 5606,11526 5485,11457 5364,11387 5264,11287 5194,11166 5125,11045 5088,10908 5088,10769 5088,10630 5125,10493 5194,10372 5264,10251 5364,10151 5485,10081 5606,10012 5743,9975 5883,9975 6022,9975 6159,10012 6280,10081 6401,10151 6501,10251 6571,10372 6640,10493 6677,10630 6677,10769 L 6677,10769 Z"/>
        <path fill="none" stroke="rgb(0,123,255)" stroke-width="106" stroke-linejoin="round" d="M 6677,10769 C 6677,10908 6640,11045 6571,11166 6501,11287 6401,11387 6280,11457 6159,11526 6022,11563 5883,11563 5743,11563 5606,11526 5485,11457 5364,11387 5264,11287 5194,11166 5125,11045 5088,10908 5088,10769 5088,10630 5125,10493 5194,10372 5264,10251 5364,10151 5485,10081 5606,10012 5743,9975 5883,9975 6022,9975 6159,10012 6280,10081 6401,10151 6501,10251 6571,10372 6640,10493 6677,10630 6677,10769 Z"/>
       </g>
      </g>
      <g class="com.sun.star.drawing.CustomShape">
       <g id="id26">
        <rect class="BoundingBox" stroke="none" fill="none" x="10021" y="13202" width="1696" height="1696"/>
        <path fill="rgb(0,0,0)" stroke="none" d="M 11663,14049 C 11663,14188 11626,14325 11557,14446 11487,14567 11387,14667 11266,14737 11145,14806 11008,14843 10869,14843 10729,14843 10592,14806 10471,14737 10350,14667 10250,14567 10180,14446 10111,14325 10074,14188 10074,14049 10074,13910 10111,13773 10180,13652 10250,13531 10350,13431 10471,13361 10592,13292 10729,13255 10869,13255 11008,13255 11145,13292 11266,13361 11387,13431 11487,13531 11557,13652 11626,13773 11663,13910 11663,14049 L 11663,14049 Z"/>
        <path fill="none" stroke="rgb(0,123,255)" stroke-width="106" stroke-linejoin="round" d="M 11663,14049 C 11663,14188 11626,14325 11557,14446 11487,14567 11387,14667 11266,14737 11145,14806 11008,14843 10869,14843 10729,14843 10592,14806 10471,14737 10350,14667 10250,14567 10180,14446 10111,14325 10074,14188 10074,14049 10074,13910 10111,13773 10180,13652 10250,13531 10350,13431 10471,13361 10592,13292 10729,13255 10869,13255 11008,13255 11145,13292 11266,13361 11387,13431 11487,13531 11557,13652 11626,13773 11663,13910 11663,14049 Z"/>
       </g>
      </g>
      <g class="com.sun.star.drawing.ConnectorShape">
       <g id="id27">
        <rect class="BoundingBox" stroke="none" fill="none" x="2724" y="23014" width="5090" height="2190"/>
        <path fill="none" stroke="rgb(0,123,255)" stroke-width="106" stroke-linejoin="round" d="M 7760,23067 L 2777,25150"/>
       </g>
      </g>
      <g class="com.sun.star.drawing.CustomShape">
       <g id="id28">
        <rect class="BoundingBox" stroke="none" fill="none" x="1930" y="24298" width="1696" height="1695"/>
        <path fill="rgb(0,0,0)" stroke="none" d="M 3572,25145 C 3572,25284 3535,25421 3466,25542 3396,25663 3296,25763 3175,25833 3054,25902 2917,25939 2778,25939 2638,25939 2501,25902 2380,25833 2259,25763 2159,25663 2089,25542 2020,25421 1983,25284 1983,25145 1983,25006 2020,24869 2089,24748 2159,24627 2259,24527 2380,24457 2501,24388 2638,24351 2778,24351 2917,24351 3054,24388 3175,24457 3296,24527 3396,24627 3466,24748 3535,24869 3572,25006 3572,25145 L 3572,25145 Z"/>
        <path fill="none" stroke="rgb(0,123,255)" stroke-width="106" stroke-linejoin="round" d="M 3572,25145 C 3572,25284 3535,25421 3466,25542 3396,25663 3296,25763 3175,25833 3054,25902 2917,25939 2778,25939 2638,25939 2501,25902 2380,25833 2259,25763 2159,25663 2089,25542 2020,25421 1983,25284 1983,25145 1983,25006 2020,24869 2089,24748 2159,24627 2259,24527 2380,24457 2501,24388 2638,24351 2778,24351 2917,24351 3054,24388 3175,24457 3296,24527 3396,24627 3466,24748 3535,24869 3572,25006 3572,25145 Z"/>
       </g>
      </g>
      <g class="com.sun.star.drawing.CustomShape">
       <g id="id29">
        <rect class="BoundingBox" stroke="none" fill="none" x="15932" y="10644" width="1696" height="1695"/>
        <path fill="rgb(0,0,0)" stroke="none" d="M 17574,11491 C 17574,11630 17537,11767 17468,11888 17398,12009 17298,12109 17177,12179 17056,12248 16919,12285 16780,12285 16640,12285 16503,12248 16382,12179 16261,12109 16161,12009 16091,11888 16022,11767 15985,11630 15985,11491 15985,11352 16022,11215 16091,11094 16161,10973 16261,10873 16382,10803 16503,10734 16640,10697 16780,10697 16919,10697 17056,10734 17177,10803 17298,10873 17398,10973 17468,11094 17537,11215 17574,11352 17574,11491 L 17574,11491 Z"/>
        <path fill="none" stroke="rgb(0,123,255)" stroke-width="106" stroke-linejoin="round" d="M 17574,11491 C 17574,11630 17537,11767 17468,11888 17398,12009 17298,12109 17177,12179 17056,12248 16919,12285 16780,12285 16640,12285 16503,12248 16382,12179 16261,12109 16161,12009 16091,11888 16022,11767 15985,11630 15985,11491 15985,11352 16022,11215 16091,11094 16161,10973 16261,10873 16382,10803 16503,10734 16640,10697 16780,10697 16919,10697 17056,10734 17177,10803 17298,10873 17398,10973 17468,11094 17537,11215 17574,11352 17574,11491 Z"/>
       </g>
      </g>
      <g class="com.sun.star.drawing.ConnectorShape">
       <g id="id30">
        <rect class="BoundingBox" stroke="none" fill="none" x="7707" y="23014" width="6124" height="2269"/>
        <path fill="none" stroke="rgb(0,123,255)" stroke-width="106" stroke-linejoin="round" d="M 7760,23067 L 13777,25229"/>
       </g>
      </g>
      <g class="com.sun.star.drawing.CustomShape">
       <g id="id31">
        <rect class="BoundingBox" stroke="none" fill="none" x="12930" y="24377" width="1696" height="1696"/>
        <path fill="rgb(0,0,0)" stroke="none" d="M 14572,25224 C 14572,25363 14535,25500 14466,25621 14396,25742 14296,25842 14175,25912 14054,25981 13917,26018 13778,26018 13638,26018 13501,25981 13380,25912 13259,25842 13159,25742 13089,25621 13020,25500 12983,25363 12983,25224 12983,25085 13020,24948 13089,24827 13159,24706 13259,24606 13380,24536 13501,24467 13638,24430 13778,24430 13917,24430 14054,24467 14175,24536 14296,24606 14396,24706 14466,24827 14535,24948 14572,25085 14572,25224 L 14572,25224 Z"/>
        <path fill="none" stroke="rgb(0,123,255)" stroke-width="106" stroke-linejoin="round" d="M 14572,25224 C 14572,25363 14535,25500 14466,25621 14396,25742 14296,25842 14175,25912 14054,25981 13917,26018 13778,26018 13638,26018 13501,25981 13380,25912 13259,25842 13159,25742 13089,25621 13020,25500 12983,25363 12983,25224 12983,25085 13020,24948 13089,24827 13159,24706 13259,24606 13380,24536 13501,24467 13638,24430 13778,24430 13917,24430 14054,24467 14175,24536 14296,24606 14396,24706 14466,24827 14535,24948 14572,25085 14572,25224 Z"/>
       </g>
      </g>
      <g class="com.sun.star.drawing.CustomShape">
       <g id="id32">
        <rect class="BoundingBox" stroke="none" fill="none" x="23699" y="19788" width="1696" height="1696"/>
        <path fill="rgb(0,0,0)" stroke="none" d="M 25341,20635 C 25341,20774 25304,20911 25235,21032 25165,21153 25065,21253 24944,21323 24823,21392 24686,21429 24547,21429 24407,21429 24270,21392 24149,21323 24028,21253 23928,21153 23858,21032 23789,20911 23752,20774 23752,20635 23752,20496 23789,20359 23858,20238 23928,20117 24028,20017 24149,19947 24270,19878 24407,19841 24547,19841 24686,19841 24823,19878 24944,19947 25065,20017 25165,20117 25235,20238 25304,20359 25341,20496 25341,20635 L 25341,20635 Z"/>
        <path fill="none" stroke="rgb(0,123,255)" stroke-width="106" stroke-linejoin="round" d="M 25341,20635 C 25341,20774 25304,20911 25235,21032 25165,21153 25065,21253 24944,21323 24823,21392 24686,21429 24547,21429 24407,21429 24270,21392 24149,21323 24028,21253 23928,21153 23858,21032 23789,20911 23752,20774 23752,20635 23752,20496 23789,20359 23858,20238 23928,20117 24028,20017 24149,19947 24270,19878 24407,19841 24547,19841 24686,19841 24823,19878 24944,19947 25065,20017 25165,20117 25235,20238 25304,20359 25341,20496 25341,20635 Z"/>
       </g>
      </g>
      <g class="com.sun.star.drawing.CustomShape">
       <g id="id33">
        <rect class="BoundingBox" stroke="none" fill="none" x="6913" y="22215" width="1696" height="1696"/>
        <path fill="rgb(0,0,0)" stroke="none" d="M 8555,23062 C 8555,23201 8518,23338 8449,23459 8379,23580 8279,23680 8158,23750 8037,23819 7900,23856 7761,23856 7621,23856 7484,23819 7363,23750 7242,23680 7142,23580 7072,23459 7003,23338 6966,23201 6966,23062 6966,22923 7003,22786 7072,22665 7142,22544 7242,22444 7363,22374 7484,22305 7621,22268 7761,22268 7900,22268 8037,22305 8158,22374 8279,22444 8379,22544 8449,22665 8518,22786 8555,22923 8555,23062 L 8555,23062 Z"/>
        <path fill="none" stroke="rgb(0,123,255)" stroke-width="106" stroke-linejoin="round" d="M 8555,23062 C 8555,23201 8518,23338 8449,23459 8379,23580 8279,23680 8158,23750 8037,23819 7900,23856 7761,23856 7621,23856 7484,23819 7363,23750 7242,23680 7142,23580 7072,23459 7003,23338 6966,23201 6966,23062 6966,22923 7003,22786 7072,22665 7142,22544 7242,22444 7363,22374 7484,22305 7621,22268 7761,22268 7900,22268 8037,22305 8158,22374 8279,22444 8379,22544 8449,22665 8518,22786 8555,22923 8555,23062 Z"/>
       </g>
      </g>
     </g>
    </g>
   </g>
  </g>
 </g>
</svg>